<mxfile host="app.diagrams.net" agent="Mozilla/5.0 (Windows NT 10.0; Win64; x64) AppleWebKit/537.36 (KHTML, like Gecko) Chrome/131.0.0.0 Safari/537.36" version="26.0.5">
  <diagram name="Page-1" id="kdeu0ntx0o7WN6-RexiS">
    <mxGraphModel dx="2213" dy="1771" grid="1" gridSize="10" guides="1" tooltips="1" connect="1" arrows="1" fold="1" page="1" pageScale="1" pageWidth="850" pageHeight="1100" math="0" shadow="0">
      <root>
        <mxCell id="0" />
        <mxCell id="1" parent="0" />
        <mxCell id="qgudHzDLpUrmj55Vf4Xr-1" value="City" style="swimlane;childLayout=stackLayout;horizontal=1;startSize=50;horizontalStack=0;rounded=1;fontSize=14;fontStyle=0;strokeWidth=2;resizeParent=0;resizeLast=1;shadow=0;dashed=0;align=center;arcSize=4;whiteSpace=wrap;html=1;" parent="1" vertex="1">
          <mxGeometry x="-80" y="-450" width="210" height="201" as="geometry" />
        </mxCell>
        <mxCell id="qgudHzDLpUrmj55Vf4Xr-2" value="city_id(int)&lt;div&gt;name(string)&lt;div&gt;state(string)&lt;/div&gt;&lt;div&gt;&lt;br&gt;&lt;/div&gt;&lt;div&gt;&lt;br&gt;&lt;/div&gt;&lt;/div&gt;" style="align=left;strokeColor=none;fillColor=none;spacingLeft=4;fontSize=12;verticalAlign=top;resizable=0;rotatable=0;part=1;html=1;" parent="qgudHzDLpUrmj55Vf4Xr-1" vertex="1">
          <mxGeometry y="50" width="210" height="151" as="geometry" />
        </mxCell>
        <mxCell id="qgudHzDLpUrmj55Vf4Xr-3" value="Place" style="swimlane;childLayout=stackLayout;horizontal=1;startSize=50;horizontalStack=0;rounded=1;fontSize=14;fontStyle=0;strokeWidth=2;resizeParent=0;resizeLast=1;shadow=0;dashed=0;align=center;arcSize=4;whiteSpace=wrap;html=1;" parent="1" vertex="1">
          <mxGeometry x="250" y="-510" width="210" height="180" as="geometry" />
        </mxCell>
        <mxCell id="qgudHzDLpUrmj55Vf4Xr-4" value="city_id(int)&lt;div&gt;place_id(int)&lt;/div&gt;&lt;div&gt;place_name(string)&lt;div&gt;img(string)&lt;/div&gt;&lt;div&gt;guide(string)&lt;/div&gt;&lt;div&gt;location(string)&lt;/div&gt;&lt;div&gt;history(string)&lt;/div&gt;&lt;/div&gt;" style="align=left;strokeColor=none;fillColor=none;spacingLeft=4;fontSize=12;verticalAlign=top;resizable=0;rotatable=0;part=1;html=1;" parent="qgudHzDLpUrmj55Vf4Xr-3" vertex="1">
          <mxGeometry y="50" width="210" height="130" as="geometry" />
        </mxCell>
        <mxCell id="qgudHzDLpUrmj55Vf4Xr-7" value="" style="edgeStyle=entityRelationEdgeStyle;fontSize=12;html=1;endArrow=ERoneToMany;rounded=0;exitX=1;exitY=0.065;exitDx=0;exitDy=0;exitPerimeter=0;entryX=0.004;entryY=0.081;entryDx=0;entryDy=0;entryPerimeter=0;" parent="1" source="qgudHzDLpUrmj55Vf4Xr-1" target="qgudHzDLpUrmj55Vf4Xr-3" edge="1">
          <mxGeometry width="100" height="100" relative="1" as="geometry">
            <mxPoint x="320" y="-220" as="sourcePoint" />
            <mxPoint x="420" y="-320" as="targetPoint" />
          </mxGeometry>
        </mxCell>
        <mxCell id="qgudHzDLpUrmj55Vf4Xr-11" value="contains" style="edgeLabel;html=1;align=center;verticalAlign=middle;resizable=0;points=[];" parent="qgudHzDLpUrmj55Vf4Xr-7" vertex="1" connectable="0">
          <mxGeometry x="0.0132" relative="1" as="geometry">
            <mxPoint as="offset" />
          </mxGeometry>
        </mxCell>
        <mxCell id="guVa6JbLSkqTIY-enMWO-15" value="" style="edgeStyle=entityRelationEdgeStyle;fontSize=12;html=1;endArrow=ERoneToMany;rounded=0;entryX=0;entryY=0.25;entryDx=0;entryDy=0;exitX=1;exitY=0;exitDx=0;exitDy=0;" parent="1" target="guVa6JbLSkqTIY-enMWO-16" edge="1" source="guVa6JbLSkqTIY-enMWO-19">
          <mxGeometry width="100" height="100" relative="1" as="geometry">
            <mxPoint x="70" y="50" as="sourcePoint" />
            <mxPoint x="170" y="-50" as="targetPoint" />
            <Array as="points">
              <mxPoint x="120" y="20" />
            </Array>
          </mxGeometry>
        </mxCell>
        <mxCell id="guVa6JbLSkqTIY-enMWO-18" value="Transportation" style="swimlane;childLayout=stackLayout;horizontal=1;startSize=50;horizontalStack=0;rounded=1;fontSize=14;fontStyle=0;strokeWidth=2;resizeParent=0;resizeLast=1;shadow=0;dashed=0;align=center;arcSize=4;whiteSpace=wrap;html=1;" parent="1" vertex="1">
          <mxGeometry x="-70" y="-140" width="160" height="120" as="geometry" />
        </mxCell>
        <mxCell id="guVa6JbLSkqTIY-enMWO-19" value="transportation_id(int)&lt;div&gt;transportation_name(string)&lt;/div&gt;" style="align=left;strokeColor=none;fillColor=none;spacingLeft=4;fontSize=12;verticalAlign=top;resizable=0;rotatable=0;part=1;html=1;" parent="guVa6JbLSkqTIY-enMWO-18" vertex="1">
          <mxGeometry y="50" width="160" height="70" as="geometry" />
        </mxCell>
        <mxCell id="guVa6JbLSkqTIY-enMWO-20" value="Hotel" style="swimlane;childLayout=stackLayout;horizontal=1;startSize=50;horizontalStack=0;rounded=1;fontSize=14;fontStyle=0;strokeWidth=2;resizeParent=0;resizeLast=1;shadow=0;dashed=0;align=center;arcSize=4;whiteSpace=wrap;html=1;" parent="1" vertex="1">
          <mxGeometry x="-385" y="-520" width="230" height="153" as="geometry" />
        </mxCell>
        <mxCell id="guVa6JbLSkqTIY-enMWO-21" value="city_id(int)&lt;div&gt;hotel_id(int)&lt;div&gt;&lt;div&gt;hotel_name(string)&lt;/div&gt;&lt;div&gt;hotel_img()&lt;/div&gt;&lt;div&gt;hotel_isAvailable(boolean)&lt;/div&gt;&lt;/div&gt;&lt;/div&gt;&lt;div&gt;hotel_location(string)&lt;/div&gt;" style="align=left;strokeColor=none;fillColor=none;spacingLeft=4;fontSize=12;verticalAlign=top;resizable=0;rotatable=0;part=1;html=1;" parent="guVa6JbLSkqTIY-enMWO-20" vertex="1">
          <mxGeometry y="50" width="230" height="103" as="geometry" />
        </mxCell>
        <mxCell id="guVa6JbLSkqTIY-enMWO-22" value="" style="edgeStyle=entityRelationEdgeStyle;fontSize=12;html=1;endArrow=ERoneToMany;rounded=0;exitX=-0.004;exitY=0.077;exitDx=0;exitDy=0;entryX=1;entryY=0.75;entryDx=0;entryDy=0;exitPerimeter=0;" parent="1" source="qgudHzDLpUrmj55Vf4Xr-1" target="guVa6JbLSkqTIY-enMWO-21" edge="1">
          <mxGeometry width="100" height="100" relative="1" as="geometry">
            <mxPoint x="-60" y="-390" as="sourcePoint" />
            <mxPoint x="30" y="-490" as="targetPoint" />
          </mxGeometry>
        </mxCell>
        <mxCell id="guVa6JbLSkqTIY-enMWO-23" value="Weather" style="swimlane;childLayout=stackLayout;horizontal=1;startSize=50;horizontalStack=0;rounded=1;fontSize=14;fontStyle=0;strokeWidth=2;resizeParent=0;resizeLast=1;shadow=0;dashed=0;align=center;arcSize=4;whiteSpace=wrap;html=1;" parent="1" vertex="1">
          <mxGeometry x="-370" y="-300" width="200" height="140" as="geometry" />
        </mxCell>
        <mxCell id="guVa6JbLSkqTIY-enMWO-24" value="city_id(int)&lt;div&gt;temp(float)&lt;/div&gt;&lt;div&gt;humidity(int)&lt;/div&gt;&lt;div&gt;rain_probability(int)&lt;/div&gt;&lt;div&gt;wind(float)&lt;/div&gt;" style="align=left;strokeColor=none;fillColor=none;spacingLeft=4;fontSize=12;verticalAlign=top;resizable=0;rotatable=0;part=1;html=1;" parent="guVa6JbLSkqTIY-enMWO-23" vertex="1">
          <mxGeometry y="50" width="200" height="90" as="geometry" />
        </mxCell>
        <mxCell id="guVa6JbLSkqTIY-enMWO-26" value="" style="edgeStyle=entityRelationEdgeStyle;fontSize=12;html=1;endArrow=ERmandOne;startArrow=ERmandOne;rounded=0;entryX=0.002;entryY=0.183;entryDx=0;entryDy=0;entryPerimeter=0;exitX=1.013;exitY=0.223;exitDx=0;exitDy=0;exitPerimeter=0;" parent="1" edge="1" target="qgudHzDLpUrmj55Vf4Xr-1" source="guVa6JbLSkqTIY-enMWO-23">
          <mxGeometry width="100" height="100" relative="1" as="geometry">
            <mxPoint x="-160" y="-220" as="sourcePoint" />
            <mxPoint x="-70" y="-280" as="targetPoint" />
          </mxGeometry>
        </mxCell>
        <mxCell id="guVa6JbLSkqTIY-enMWO-32" value="" style="edgeStyle=entityRelationEdgeStyle;fontSize=12;html=1;endArrow=ERoneToMany;rounded=0;exitX=1.009;exitY=0.221;exitDx=0;exitDy=0;exitPerimeter=0;entryX=-0.007;entryY=0.131;entryDx=0;entryDy=0;entryPerimeter=0;" parent="1" source="qgudHzDLpUrmj55Vf4Xr-1" target="guVa6JbLSkqTIY-enMWO-16" edge="1">
          <mxGeometry width="100" height="100" relative="1" as="geometry">
            <mxPoint x="131" y="-258" as="sourcePoint" />
            <mxPoint x="380" y="-90" as="targetPoint" />
            <Array as="points">
              <mxPoint x="170" y="-200" />
              <mxPoint x="190" y="-189" />
            </Array>
          </mxGeometry>
        </mxCell>
        <mxCell id="guVa6JbLSkqTIY-enMWO-16" value="Communication" style="swimlane;childLayout=stackLayout;horizontal=1;startSize=50;horizontalStack=0;rounded=1;fontSize=14;fontStyle=0;strokeWidth=2;resizeParent=0;resizeLast=1;shadow=0;dashed=0;align=center;arcSize=4;whiteSpace=wrap;html=1;" parent="1" vertex="1">
          <mxGeometry x="190" y="-230" width="160" height="120" as="geometry" />
        </mxCell>
        <mxCell id="guVa6JbLSkqTIY-enMWO-17" value="city_id(int)&lt;div&gt;transportation_id(int)&lt;/div&gt;" style="align=left;strokeColor=none;fillColor=none;spacingLeft=4;fontSize=12;verticalAlign=top;resizable=0;rotatable=0;part=1;html=1;" parent="guVa6JbLSkqTIY-enMWO-16" vertex="1">
          <mxGeometry y="50" width="160" height="70" as="geometry" />
        </mxCell>
        <mxCell id="guVa6JbLSkqTIY-enMWO-33" value="TourGuide" style="swimlane;childLayout=stackLayout;horizontal=1;startSize=50;horizontalStack=0;rounded=1;fontSize=14;fontStyle=0;strokeWidth=2;resizeParent=0;resizeLast=1;shadow=0;dashed=0;align=center;arcSize=4;whiteSpace=wrap;html=1;" parent="1" vertex="1">
          <mxGeometry x="530" y="-630" width="180" height="185.53" as="geometry" />
        </mxCell>
        <mxCell id="guVa6JbLSkqTIY-enMWO-34" value="place_id(int)&lt;div&gt;id(int)&lt;/div&gt;&lt;div&gt;name(string)&lt;/div&gt;&lt;div&gt;email(string)&lt;/div&gt;&lt;div&gt;experience(byte)&lt;/div&gt;&lt;div&gt;charges(int)&lt;/div&gt;&lt;div&gt;isAvailable(boolean)&lt;/div&gt;" style="align=left;strokeColor=none;fillColor=none;spacingLeft=4;fontSize=12;verticalAlign=top;resizable=0;rotatable=0;part=1;html=1;" parent="guVa6JbLSkqTIY-enMWO-33" vertex="1">
          <mxGeometry y="50" width="180" height="135.53" as="geometry" />
        </mxCell>
        <mxCell id="guVa6JbLSkqTIY-enMWO-35" value="" style="edgeStyle=entityRelationEdgeStyle;fontSize=12;html=1;endArrow=ERoneToMany;rounded=0;exitX=1.014;exitY=0.097;exitDx=0;exitDy=0;exitPerimeter=0;entryX=0.003;entryY=0.168;entryDx=0;entryDy=0;entryPerimeter=0;" parent="1" source="qgudHzDLpUrmj55Vf4Xr-3" edge="1" target="guVa6JbLSkqTIY-enMWO-33">
          <mxGeometry width="100" height="100" relative="1" as="geometry">
            <mxPoint x="680" y="-460" as="sourcePoint" />
            <mxPoint x="780" y="-580" as="targetPoint" />
          </mxGeometry>
        </mxCell>
      </root>
    </mxGraphModel>
  </diagram>
</mxfile>
